<svg width="33" height="33" viewBox="0 0 33 33" fill="none" xmlns="http://www.w3.org/2000/svg">
<g filter="url(#filter0_d_322_1381)">
<circle cx="16" cy="16" r="16" fill="#EA5F5F"/>
<circle cx="16" cy="16" r="15" stroke="#030303" stroke-width="2"/>
</g>
<path d="M21.2471 19.9525C21.7159 20.4212 21.7159 21.1806 21.2471 21.6493C21.0146 21.8837 20.7071 22 20.3996 22C20.0921 22 19.7854 21.8828 19.5514 21.6484L15.5996 17.6987L11.6482 21.6475C11.4139 21.8837 11.1067 22 10.7996 22C10.4925 22 10.1857 21.8837 9.95117 21.6475C9.48242 21.1787 9.48242 20.4193 9.95117 19.9506L13.9037 15.9981L9.95117 12.0475C9.48242 11.5787 9.48242 10.8193 9.95117 10.3506C10.4199 9.88184 11.1793 9.88184 11.648 10.3506L15.5996 14.305L19.5521 10.3525C20.0209 9.88371 20.7802 9.88371 21.249 10.3525C21.7177 10.8212 21.7177 11.5806 21.249 12.0493L17.2965 16.0018L21.2471 19.9525Z" fill="black"/>
<defs>
<filter id="filter0_d_322_1381" x="0" y="0" width="33" height="33" filterUnits="userSpaceOnUse" color-interpolation-filters="sRGB">
<feFlood flood-opacity="0" result="BackgroundImageFix"/>
<feColorMatrix in="SourceAlpha" type="matrix" values="0 0 0 0 0 0 0 0 0 0 0 0 0 0 0 0 0 0 127 0" result="hardAlpha"/>
<feOffset dx="1" dy="1"/>
<feComposite in2="hardAlpha" operator="out"/>
<feColorMatrix type="matrix" values="0 0 0 0 0.0117647 0 0 0 0 0.0117647 0 0 0 0 0.0117647 0 0 0 1 0"/>
<feBlend mode="normal" in2="BackgroundImageFix" result="effect1_dropShadow_322_1381"/>
<feBlend mode="normal" in="SourceGraphic" in2="effect1_dropShadow_322_1381" result="shape"/>
</filter>
</defs>
</svg>
