<svg width="672" height="392" viewBox="0 0 672 392" fill="none" xmlns="http://www.w3.org/2000/svg">
<g filter="url(#filter0_d_363_423)">
<rect x="14" y="61.4612" width="365" height="118" transform="rotate(-4 14 61.4612)" fill="#4ED5CD"/>
<rect x="16.6683" y="63.7807" width="360" height="113" transform="rotate(-4 16.6683 63.7807)" stroke="#030303" stroke-width="5"/>
</g>
<path d="M57.8584 149.004C66.8012 148.379 71.0676 142.755 70.4191 133.481L67.3272 89.2637L58.55 89.8775L61.6883 134.757C61.9778 138.897 60.3431 140.509 57.445 140.712C54.5469 140.915 52.7038 139.546 52.4143 135.406L49.276 90.526L40.1676 91.1629L43.2595 135.38C43.908 144.654 48.9156 149.629 57.8584 149.004ZM75.3025 146.952L83.914 146.35L89.2911 125.671L89.4567 125.659L97.4938 145.4L107.099 144.729L94.5101 115.82L102.549 86.8008L93.9375 87.403L88.953 106.557L88.7874 106.568L81.3514 88.2831L71.7462 88.9547L83.7456 116.573L75.3025 146.952ZM124.687 143.499L138.598 142.526C147.706 141.889 151.825 136.525 151.176 127.251L149.126 97.9388C148.478 88.6648 143.653 83.9265 134.545 84.5634L120.634 85.5362L124.687 143.499ZM133.216 134.581L130.321 93.1796L134.958 92.8554C137.856 92.6527 139.7 94.0216 139.989 98.1617L142.097 128.302C142.386 132.442 140.752 134.055 137.853 134.257L133.216 134.581ZM158.326 141.146L183.167 139.409L182.588 131.129L166.855 132.229L165.611 114.426L178.114 113.552L177.535 105.272L165.032 106.146L163.96 90.8273L179.693 89.7272L179.114 81.4468L154.273 83.1839L158.326 141.146ZM200.468 139.032C209.41 138.406 213.842 132.771 213.182 123.331C212.679 116.128 209.953 111.658 201.866 105.484C195.539 100.684 193.421 97.7538 193.125 93.5308C192.848 89.5562 194.394 87.8672 197.292 87.6645C200.19 87.4618 201.956 88.9193 202.245 93.0595L202.454 96.0404L211.065 95.4382L210.898 93.0369C210.249 83.7629 205.49 78.7704 196.63 79.3899C187.77 80.0095 183.421 85.6389 184.058 94.7473C184.521 101.372 187.335 105.918 195.422 112.092C201.749 116.892 203.784 119.828 204.12 124.631C204.421 128.937 202.704 130.554 199.806 130.757C196.908 130.96 194.982 129.597 194.692 125.457L194.414 121.482L185.803 122.084L186.034 125.396C186.683 134.67 191.525 139.657 200.468 139.032ZM219.378 136.877L228.486 136.24L224.433 78.2778L215.324 78.9148L219.378 136.877ZM248.283 135.688C257.226 135.063 261.492 129.439 260.844 120.165L259.518 101.203L246.352 102.124L246.931 110.404L251.485 110.086L252.278 121.43C252.568 125.57 250.85 127.188 247.952 127.39C245.054 127.593 243.128 126.23 242.839 122.09L240.621 90.376C240.332 86.2358 242.043 84.5352 244.941 84.3325C247.839 84.1299 249.771 85.5757 250.061 89.7159L250.449 95.2638L259.06 94.6616L258.713 89.6934C258.064 80.4194 253.057 75.4442 244.114 76.0695C235.171 76.6949 230.905 82.3185 231.553 91.5925L233.684 122.064C234.332 131.338 239.34 136.313 248.283 135.688ZM267.653 133.502L275.767 132.934L272.809 90.6215L272.974 90.6099L286.863 132.158L296.22 131.504L292.167 73.5414L284.052 74.1088L286.478 108.804L286.313 108.815L275.026 74.74L263.6 75.539L267.653 133.502ZM302.99 131.031L327.831 129.294L327.252 121.013L311.519 122.113L310.274 104.31L322.778 103.436L322.199 95.1558L309.695 96.0301L308.624 80.7115L324.357 79.6113L323.778 71.331L298.937 73.068L302.99 131.031ZM333.071 128.927L342.179 128.29L340.442 103.449L343.589 103.229C347.729 102.94 349.424 104.568 349.8 109.951L350.541 120.55C350.871 125.269 351.266 126.157 351.867 127.613L361.141 126.964C360.08 124.875 359.852 122.811 359.655 119.995L358.943 109.811C358.486 103.269 356.694 99.0675 352.042 97.9783L352.03 97.8127C355.972 95.8729 357.61 91.9307 357.193 85.9689L356.944 82.4083C356.319 73.4655 351.954 69.3607 342.515 70.0207L329.018 70.9645L333.071 128.927ZM339.863 95.1687L338.705 78.608L342.845 78.3185C346.075 78.0927 347.61 79.8159 347.899 83.9561L348.212 88.4275C348.536 93.0645 346.57 94.6997 343.175 94.9371L339.863 95.1687Z" fill="black"/>
<g filter="url(#filter1_d_363_423)">
<rect x="124" y="123.461" width="365" height="118" transform="rotate(4 124 123.461)" fill="#DF78CF"/>
<rect x="126.32" y="126.129" width="360" height="113" transform="rotate(4 126.32 126.129)" stroke="#030303" stroke-width="5"/>
</g>
<path d="M164.208 216.882C173.15 217.508 178.158 212.533 178.807 203.259L181.898 159.041L173.121 158.428L169.983 203.307C169.694 207.447 167.85 208.816 164.952 208.614C162.054 208.411 160.42 206.799 160.709 202.659L163.847 157.779L154.739 157.142L151.647 201.359C150.998 210.633 155.265 216.257 164.208 216.882ZM184.333 217.458L193.441 218.094L197.494 160.132L188.386 159.495L184.333 217.458ZM213.524 219.499L227.435 220.472C236.543 221.108 241.368 216.37 242.017 207.096L244.066 177.784C244.715 168.51 240.597 163.146 231.488 162.509L217.577 161.536L213.524 219.499ZM223.211 211.855L226.107 170.454L230.744 170.778C233.642 170.98 235.276 172.593 234.987 176.733L232.879 206.873C232.59 211.013 230.747 212.382 227.848 212.18L223.211 211.855ZM247.163 221.851L272.004 223.588L272.583 215.308L256.85 214.208L258.095 196.405L270.599 197.279L271.178 188.999L258.674 188.124L259.746 172.806L275.478 173.906L276.057 165.626L251.216 163.889L247.163 221.851ZM289.189 225.622C298.132 226.247 303.305 221.284 303.965 211.844C304.469 204.64 302.391 199.835 295.243 192.595C289.645 186.962 287.955 183.765 288.251 179.542C288.528 175.567 290.295 174.11 293.193 174.313C296.091 174.515 297.637 176.204 297.347 180.344L297.139 183.325L305.75 183.928L305.918 181.526C306.567 172.252 302.549 166.646 293.689 166.026C284.829 165.407 279.739 170.376 279.102 179.485C278.638 186.109 280.792 191.002 287.941 198.242C293.538 203.876 295.146 207.067 294.81 211.87C294.509 216.175 292.583 217.538 289.685 217.336C286.787 217.133 285.069 215.515 285.359 211.375L285.637 207.4L277.025 206.798L276.794 210.11C276.145 219.384 280.246 224.997 289.189 225.622ZM308.214 226.12L317.323 226.757L321.376 168.795L312.268 168.158L308.214 226.12ZM337.004 228.965C345.947 229.591 350.954 224.616 351.603 215.342L352.929 196.38L339.763 195.459L339.184 203.739L343.738 204.058L342.945 215.402C342.655 219.542 340.73 220.905 337.831 220.702C334.933 220.5 333.216 218.882 333.505 214.742L335.723 183.028C336.012 178.888 337.944 177.442 340.842 177.645C343.74 177.847 345.452 179.548 345.163 183.688L344.775 189.236L353.386 189.838L353.734 184.87C354.382 175.596 350.116 169.972 341.173 169.347C332.23 168.721 327.223 173.697 326.574 182.971L324.443 213.442C323.795 222.716 328.061 228.34 337.004 228.965ZM356.49 229.496L364.604 230.063L367.563 187.751L367.729 187.762L375.7 230.839L385.057 231.494L389.11 173.531L380.995 172.964L378.569 207.658L378.404 207.647L371.97 172.332L360.543 171.533L356.49 229.496ZM391.827 231.967L416.668 233.704L417.247 225.424L401.514 224.324L402.759 206.521L415.262 207.395L415.841 199.115L403.338 198.24L404.409 182.922L420.142 184.022L420.721 175.741L395.88 174.004L391.827 231.967ZM421.908 234.07L431.016 234.707L432.753 209.866L435.9 210.086C440.04 210.376 441.492 212.225 441.115 217.607L440.374 228.206C440.044 232.926 440.312 233.86 440.704 235.385L449.978 236.033C449.218 233.817 449.28 231.741 449.477 228.926L450.189 218.741C450.646 212.199 449.457 207.789 445.001 206.063L445.013 205.897C449.186 204.525 451.357 200.849 451.774 194.887L452.023 191.327C452.648 182.384 448.897 177.712 439.458 177.052L425.961 176.108L421.908 234.07ZM433.332 201.586L434.49 185.025L438.63 185.315C441.86 185.54 443.14 187.461 442.851 191.601L442.538 196.072C442.214 200.709 440.039 202.055 436.644 201.817L433.332 201.586Z" fill="black"/>
<g filter="url(#filter2_d_363_423)">
<rect x="37" y="267.461" width="520" height="118" transform="rotate(-6 37 267.461)" fill="#AADC6B"/>
<rect x="39.7476" y="269.686" width="515" height="113" transform="rotate(-6 39.7476 269.686)" stroke="#030303" stroke-width="5"/>
</g>
<path d="M66.923 354.368L76.0036 353.414L73.5308 329.887L77.8235 329.436C86.9041 328.481 90.8326 322.977 89.8608 313.731L89.2621 308.035C88.2904 298.79 83.3033 294.223 74.2227 295.177L60.8494 296.583L66.923 354.368ZM72.6631 321.632L70.7977 303.883L75.0904 303.432C77.9797 303.128 79.6869 304.284 80.1208 308.412L80.8409 315.264C81.2747 319.391 79.8451 320.877 76.9558 321.181L72.6631 321.632ZM98.7664 351.021L107.847 350.067L105.244 325.302L108.381 324.972C112.509 324.538 114.259 326.107 114.823 331.473L115.934 342.039C116.428 346.745 116.854 347.618 117.506 349.052L126.751 348.08C125.618 346.029 125.318 343.974 125.023 341.167L123.956 331.014C123.27 324.492 121.333 320.356 116.646 319.429L116.628 319.264C120.5 317.188 121.999 313.191 121.375 307.248L121.001 303.698C120.064 294.782 115.56 290.832 106.149 291.821L92.6929 293.236L98.7664 351.021ZM104.376 317.047L102.641 300.536L106.769 300.103C109.988 299.764 111.582 301.433 112.016 305.56L112.485 310.018C112.971 314.641 111.063 316.344 107.678 316.699L104.376 317.047ZM145.273 346.968C154.189 346.031 158.504 340.236 157.532 330.99L154.339 300.611C153.368 291.365 147.942 286.594 139.026 287.531C130.111 288.468 125.796 294.263 126.767 303.509L129.96 333.888C130.932 343.134 136.358 347.905 145.273 346.968ZM144.406 338.713C141.516 339.017 139.535 337.639 139.102 333.511L135.787 301.977C135.353 297.849 137.005 296.09 139.894 295.786C142.783 295.483 144.764 296.86 145.198 300.988L148.512 332.522C148.946 336.65 147.295 338.409 144.406 338.713ZM165.114 344.048L178.982 342.59C188.063 341.636 191.991 336.132 191.02 326.886L187.948 297.663C186.976 288.417 181.989 283.85 172.909 284.805L159.04 286.262L165.114 344.048ZM173.327 334.839L168.988 293.563L173.611 293.077C176.501 292.773 178.39 294.077 178.824 298.205L181.982 328.253C182.416 332.381 180.839 334.049 177.949 334.353L173.327 334.839ZM211.945 339.96C220.86 339.023 224.928 333.254 223.956 324.009L219.323 279.926L210.573 280.846L215.275 325.589C215.709 329.716 214.132 331.384 211.242 331.688C208.353 331.992 206.463 330.688 206.03 326.56L201.327 281.818L192.246 282.772L196.88 326.854C197.851 336.1 203.029 340.898 211.945 339.96ZM244.746 336.513C253.497 335.593 257.564 329.824 256.627 320.909L255.768 312.736L247.183 313.638L248.111 322.471C248.51 326.269 246.85 327.945 244.126 328.232C241.402 328.518 239.43 327.223 239.031 323.426L235.638 291.148C235.239 287.351 236.89 285.592 239.614 285.305C242.339 285.019 244.32 286.396 244.719 290.194L245.421 296.88L254.007 295.978L253.365 289.869C252.428 280.954 247.249 276.156 238.499 277.076C229.749 277.996 225.681 283.765 226.618 292.681L229.88 323.72C230.818 332.635 235.996 337.433 244.746 336.513ZM270.565 332.965L279.646 332.01L274.44 282.48L283.933 281.482L283.065 273.227L254.998 276.177L255.866 284.432L265.359 283.434L270.565 332.965ZM306.757 329.161L320.625 327.703C329.706 326.749 333.634 321.245 332.662 311.999L329.591 282.776C328.619 273.53 323.632 268.963 314.552 269.917L300.683 271.375L306.757 329.161ZM314.969 319.951L310.631 278.676L315.254 278.19C318.143 277.886 320.033 279.19 320.467 283.317L323.625 313.366C324.059 317.494 322.482 319.162 319.592 319.465L314.969 319.951ZM340.293 325.636L365.058 323.033L364.191 314.778L348.506 316.426L346.64 298.678L359.106 297.368L358.238 289.113L345.773 290.423L344.168 275.151L359.852 273.502L358.985 265.247L334.219 267.85L340.293 325.636ZM382.335 322.052C391.25 321.115 395.483 315.328 394.494 305.917C393.739 298.735 390.859 294.364 382.562 288.476C376.072 283.9 373.852 281.045 373.409 276.835C372.993 272.872 374.479 271.13 377.368 270.827C380.258 270.523 382.073 271.918 382.507 276.046L382.82 279.017L391.405 278.115L391.153 275.721C390.182 266.475 385.251 261.652 376.418 262.58C367.585 263.509 363.435 269.286 364.389 278.367C365.084 284.971 368.055 289.416 376.352 295.305C382.842 299.881 384.98 302.744 385.483 307.532C385.934 311.825 384.274 313.502 381.385 313.805C378.495 314.109 376.523 312.814 376.089 308.686L375.673 304.724L367.088 305.626L367.435 308.928C368.406 318.174 373.419 322.989 382.335 322.052ZM401.158 319.239L410.239 318.284L404.165 260.499L395.085 261.453L401.158 319.239ZM430.004 317.042C438.92 316.104 442.987 310.335 442.016 301.09L440.029 282.185L426.903 283.565L427.771 291.82L432.311 291.343L433.5 302.652C433.934 306.78 432.274 308.457 429.384 308.76C426.495 309.064 424.523 307.769 424.089 303.641L420.766 272.024C420.332 267.897 421.983 266.137 424.873 265.834C427.762 265.53 429.743 266.908 430.177 271.035L430.758 276.566L439.343 275.664L438.823 270.711C437.851 261.465 432.673 256.668 423.757 257.605C414.842 258.542 410.774 264.311 411.746 273.557L414.939 303.935C415.911 313.181 421.089 317.979 430.004 317.042ZM449.286 314.18L457.376 313.33L452.943 271.146L453.108 271.129L468.438 312.167L477.766 311.187L471.693 253.401L463.603 254.251L467.238 288.84L467.073 288.858L454.605 255.197L443.213 256.395L449.286 314.18ZM484.515 310.478L509.281 307.875L508.413 299.619L492.728 301.268L490.863 283.52L503.328 282.209L502.461 273.954L489.995 275.264L488.39 259.992L504.075 258.344L503.207 250.089L478.442 252.692L484.515 310.478ZM514.505 307.326L523.585 306.371L520.982 281.606L524.119 281.276C528.247 280.842 529.998 282.411 530.562 287.777L531.672 298.343C532.167 303.049 532.592 303.922 533.244 305.356L542.49 304.384C541.356 302.333 541.056 300.278 540.761 297.471L539.694 287.318C539.009 280.796 537.072 276.66 532.384 275.734L532.367 275.568C536.238 273.492 537.738 269.495 537.113 263.552L536.74 260.002C535.803 251.086 531.298 247.136 521.887 248.126L508.431 249.54L514.505 307.326ZM520.115 273.351L518.379 256.84L522.507 256.407C525.727 256.068 527.321 257.737 527.755 261.864L528.223 266.322C528.709 270.945 526.801 272.648 523.417 273.004L520.115 273.351Z" fill="black"/>
<path d="M604.561 244.236C605.744 243.871 606.225 243.943 606.652 243.711C631.399 222.14 645.987 195.164 647.481 162.05C647.879 153.689 646.105 145.398 642.542 137.579C635.051 120.754 618.234 111.204 600.041 113.317C590.553 114.365 581.662 117.027 574.401 123.626C574.572 128.133 574.894 132.613 574.708 136.869C574.372 143.811 571.855 149.887 566.24 154.318C562.156 157.698 557.616 158.498 554.767 156.498C551.028 153.872 550.279 149.624 551.631 145.788C553.498 140.452 556.025 135.314 558.756 130.452C560.544 127.321 563.169 124.512 565.491 121.756C559.896 105.066 542.422 100.638 524.312 111.184C524.135 113.718 523.984 116.404 523.656 118.965C522.208 128.449 517.813 136.264 509.297 141.051C506.031 142.878 502.328 144 498.74 141.348C496.043 139.32 495.294 135.072 496.965 130.397C499.722 123.028 504.794 117.285 510.427 112.068C512.455 110.302 514.484 108.537 516.54 106.923C508.832 80.9061 481.76 66.2822 460.331 81.0108C460.135 79.0119 459.689 77.3697 460.134 76.3527C460.703 75.1573 462.261 74.2569 463.569 73.7134C476.002 69.0182 488.223 68.4277 499.716 76.0998C508.361 81.7714 514.852 89.387 519.893 98.5098C520.588 99.7952 521.282 101.081 522.128 102.339C522.155 102.491 522.484 102.589 523.17 102.938C524.505 102.546 526.169 102.253 527.78 101.656C547.493 94.8946 559.048 98.4887 571.773 115.799C573.482 114.872 575.493 113.892 577.326 112.786C588.281 106.787 599.878 104.429 612.376 106.293C632.715 109.277 648.038 123.626 653.092 144.323C655.855 155.568 655.814 166.838 653.601 178.178C648.136 205.579 635.353 228.639 613.168 246.16C612.092 247.132 610.837 247.979 609.76 248.951C609.636 249.129 609.538 249.459 609.244 250.45C614.603 250.756 619.364 249.447 624.153 248.29C628.817 247.311 633.578 246.003 638.669 244.792C638.911 248.817 637.06 250.707 634.648 252.071C631.783 253.515 628.97 255.262 625.971 255.948C617.854 257.692 609.559 259.311 601.157 260.323C594.57 261.015 592.139 257.846 594.078 252.029C598.302 239.708 602.677 227.361 607.052 215.013C607.791 213.006 608.885 211.249 610.175 208.831C613.638 211.662 612.856 214.303 612.198 216.765C609.406 225.705 607.068 234.565 604.561 244.236ZM502.477 135.996C512.676 132.789 518.005 124.967 516.801 115.48C510.643 121.259 504.708 126.529 502.477 135.996ZM557.765 150.494C566.318 146.796 569.484 139.98 566.945 130.886C562.051 136.754 557.86 142.186 557.765 150.494Z" fill="#030303"/>
<g filter="url(#filter3_d_363_423)">
<rect x="316" y="18.0331" width="82.9451" height="68" transform="rotate(-12.557 316 18.0331)" fill="#DF8B78"/>
<rect x="317.79" y="19.1711" width="79.9451" height="65" transform="rotate(-12.557 317.79 19.1711)" stroke="#030303" stroke-width="3"/>
</g>
<path d="M342.678 64.3407L347.269 63.318L341.937 39.3767L342.03 39.3558L353.547 61.9196L358.842 60.7403L351.537 27.944L346.945 28.9667L351.318 48.5977L351.224 48.6185L341.838 30.1042L335.373 31.5444L342.678 64.3407ZM362.672 59.8871L367.826 58.7392L364.643 44.4494L371.296 42.9675L370.252 38.2823L363.6 39.7642L361.565 30.6281L370.045 28.7392L369.001 24.0541L355.367 27.0908L362.672 59.8871ZM383.264 55.3005L388.418 54.1526L382.157 26.0414L387.545 24.8413L386.501 20.1562L370.571 23.7043L371.615 28.3895L377.003 27.1894L383.264 55.3005Z" fill="black"/>
<g filter="url(#filter4_d_363_423)">
<rect y="242.389" width="131.25" height="68" transform="rotate(-19.3041 0 242.389)" fill="#7882DF"/>
<rect x="1.91154" y="243.309" width="128.25" height="65" transform="rotate(-19.3041 1.91154 243.309)" stroke="#030303" stroke-width="3"/>
</g>
<path d="M35.4534 284.517C40.2553 282.835 41.7766 279.047 40.0629 274.155L38.492 269.67L33.7806 271.32L35.4785 276.167C36.2084 278.251 35.4974 279.416 34.0025 279.939C32.5075 280.463 31.2253 279.997 30.4954 277.913L24.291 260.2C23.5611 258.116 24.2562 256.906 25.7512 256.383C27.2461 255.859 28.5442 256.371 29.2741 258.455L30.5594 262.124L35.2708 260.474L34.0966 257.121C32.3828 252.229 28.8304 250.218 24.0285 251.9C19.2265 253.582 17.7052 257.37 19.4189 262.263L25.3853 279.296C27.099 284.188 30.6514 286.199 35.4534 284.517ZM45.6149 280.449L50.598 278.704L45.8377 265.113L47.5591 264.51C49.8242 263.717 51.0181 264.367 52.0495 267.311L54.0806 273.11C54.9851 275.692 55.3409 276.127 55.8983 276.847L60.972 275.07C60.0612 274.067 59.6192 272.95 59.0796 271.41L57.1279 265.838C55.8743 262.259 54.2338 260.189 51.4724 260.291L51.4407 260.201C53.3431 258.517 53.6551 256.068 52.5126 252.807L51.8303 250.859C50.1166 245.966 47.0558 244.343 41.8915 246.152L34.5073 248.738L45.6149 280.449ZM44.2509 260.583L41.0773 251.523L43.3423 250.73C45.1091 250.111 46.2283 250.838 47.0217 253.103L47.8786 255.549C48.7672 258.086 47.9203 259.298 46.0629 259.948L44.2509 260.583ZM67.7534 272.695L72.7366 270.949L68.0079 257.449L67.6541 237.128L62.8069 238.826L63.4873 251.658L63.3967 251.69L55.9211 241.238L50.6208 243.094L63.0248 259.195L67.7534 272.695ZM81.0065 268.052L85.9897 266.307L81.4673 253.396L83.823 252.571C88.8061 250.825 90.2845 247.205 88.5073 242.131L87.4124 239.006C85.6352 233.932 82.2209 232.025 77.2378 233.771L69.899 236.341L81.0065 268.052ZM79.8805 248.866L76.4689 239.126L78.8246 238.301C80.4101 237.746 81.5248 238.169 82.3182 240.434L83.6352 244.194C84.4286 246.459 83.8217 247.485 82.2362 248.041L79.8805 248.866ZM102.466 260.536L107.449 258.79L97.9279 231.61L103.138 229.785L101.551 225.255L86.1484 230.65L87.7352 235.18L92.9448 233.355L102.466 260.536ZM122.256 254.112C127.148 252.399 128.805 248.563 127.028 243.489L121.189 226.819C119.412 221.745 115.723 219.782 110.831 221.495C105.938 223.209 104.281 227.045 106.058 232.118L111.898 248.789C113.675 253.863 117.363 255.826 122.256 254.112ZM120.669 249.582C119.083 250.138 117.785 249.626 116.992 247.361L110.93 230.056C110.137 227.791 110.832 226.581 112.418 226.026C114.003 225.47 115.301 225.982 116.095 228.247L122.156 245.552C122.95 247.817 122.254 249.027 120.669 249.582Z" fill="black"/>
<defs>
<filter id="filter0_d_363_423" x="14" y="36.0001" width="379.342" height="150.174" filterUnits="userSpaceOnUse" color-interpolation-filters="sRGB">
<feFlood flood-opacity="0" result="BackgroundImageFix"/>
<feColorMatrix in="SourceAlpha" type="matrix" values="0 0 0 0 0 0 0 0 0 0 0 0 0 0 0 0 0 0 127 0" result="hardAlpha"/>
<feOffset dx="7" dy="7"/>
<feComposite in2="hardAlpha" operator="out"/>
<feColorMatrix type="matrix" values="0 0 0 0 0.0117647 0 0 0 0 0.0117647 0 0 0 0 0.0117647 0 0 0 1 0"/>
<feBlend mode="normal" in2="BackgroundImageFix" result="effect1_dropShadow_363_423"/>
<feBlend mode="normal" in="SourceGraphic" in2="effect1_dropShadow_363_423" result="shape"/>
</filter>
<filter id="filter1_d_363_423" x="115.769" y="123.461" width="379.343" height="150.174" filterUnits="userSpaceOnUse" color-interpolation-filters="sRGB">
<feFlood flood-opacity="0" result="BackgroundImageFix"/>
<feColorMatrix in="SourceAlpha" type="matrix" values="0 0 0 0 0 0 0 0 0 0 0 0 0 0 0 0 0 0 127 0" result="hardAlpha"/>
<feOffset dx="7" dy="7"/>
<feComposite in2="hardAlpha" operator="out"/>
<feColorMatrix type="matrix" values="0 0 0 0 0.0117647 0 0 0 0 0.0117647 0 0 0 0 0.0117647 0 0 0 1 0"/>
<feBlend mode="normal" in2="BackgroundImageFix" result="effect1_dropShadow_363_423"/>
<feBlend mode="normal" in="SourceGraphic" in2="effect1_dropShadow_363_423" result="shape"/>
</filter>
<filter id="filter2_d_363_423" x="37" y="213.106" width="536.485" height="178.708" filterUnits="userSpaceOnUse" color-interpolation-filters="sRGB">
<feFlood flood-opacity="0" result="BackgroundImageFix"/>
<feColorMatrix in="SourceAlpha" type="matrix" values="0 0 0 0 0 0 0 0 0 0 0 0 0 0 0 0 0 0 127 0" result="hardAlpha"/>
<feOffset dx="7" dy="7"/>
<feComposite in2="hardAlpha" operator="out"/>
<feColorMatrix type="matrix" values="0 0 0 0 0.0117647 0 0 0 0 0.0117647 0 0 0 0 0.0117647 0 0 0 1 0"/>
<feBlend mode="normal" in2="BackgroundImageFix" result="effect1_dropShadow_363_423"/>
<feBlend mode="normal" in="SourceGraphic" in2="effect1_dropShadow_363_423" result="shape"/>
</filter>
<filter id="filter3_d_363_423" x="316" y="0" width="99.7451" height="88.4066" filterUnits="userSpaceOnUse" color-interpolation-filters="sRGB">
<feFlood flood-opacity="0" result="BackgroundImageFix"/>
<feColorMatrix in="SourceAlpha" type="matrix" values="0 0 0 0 0 0 0 0 0 0 0 0 0 0 0 0 0 0 127 0" result="hardAlpha"/>
<feOffset dx="4" dy="4"/>
<feComposite in2="hardAlpha" operator="out"/>
<feColorMatrix type="matrix" values="0 0 0 0 0.0117647 0 0 0 0 0.0117647 0 0 0 0 0.0117647 0 0 0 1 0"/>
<feBlend mode="normal" in2="BackgroundImageFix" result="effect1_dropShadow_363_423"/>
<feBlend mode="normal" in="SourceGraphic" in2="effect1_dropShadow_363_423" result="shape"/>
</filter>
<filter id="filter4_d_363_423" x="0" y="199" width="150.351" height="111.566" filterUnits="userSpaceOnUse" color-interpolation-filters="sRGB">
<feFlood flood-opacity="0" result="BackgroundImageFix"/>
<feColorMatrix in="SourceAlpha" type="matrix" values="0 0 0 0 0 0 0 0 0 0 0 0 0 0 0 0 0 0 127 0" result="hardAlpha"/>
<feOffset dx="4" dy="4"/>
<feComposite in2="hardAlpha" operator="out"/>
<feColorMatrix type="matrix" values="0 0 0 0 0.0117647 0 0 0 0 0.0117647 0 0 0 0 0.0117647 0 0 0 1 0"/>
<feBlend mode="normal" in2="BackgroundImageFix" result="effect1_dropShadow_363_423"/>
<feBlend mode="normal" in="SourceGraphic" in2="effect1_dropShadow_363_423" result="shape"/>
</filter>
</defs>
</svg>
