<svg width="49" height="59" viewBox="0 0 49 59" fill="none" xmlns="http://www.w3.org/2000/svg">
<path d="M46.4646 58.4867H31.7606C31.1367 58.4867 30.5383 58.2094 30.0971 57.7156C29.6559 57.2219 29.408 56.5522 29.408 55.854V39.3993C29.408 38.701 29.6559 38.0314 30.0971 37.5376C30.5383 37.0439 31.1367 36.7665 31.7606 36.7665C32.3846 36.7665 32.983 37.0439 33.4242 37.5376C33.8654 38.0314 34.1133 38.701 34.1133 39.3993V53.2212H44.112V5.83167H34.1133V19.6536C34.1069 24.2584 32.6163 28.706 29.9152 32.1797C27.214 35.6534 23.4837 37.9201 19.4093 38.5634V55.854C19.4093 56.5522 19.1614 57.2219 18.7202 57.7156C18.279 58.2094 17.6806 58.4867 17.0566 58.4867H2.35264C1.72868 58.4867 1.13028 58.2094 0.689072 57.7156C0.247867 57.2219 0 56.5522 0 55.854V42.6902C0.00637103 38.0855 1.49698 33.6379 4.19811 30.1642C6.89923 26.6904 10.6295 24.4238 14.704 23.7805V5.83167H4.70528V22.9446C4.70528 23.6428 4.45741 24.3125 4.01621 24.8062C3.575 25.2999 2.9766 25.5773 2.35264 25.5773C1.72868 25.5773 1.13028 25.2999 0.689072 24.8062C0.247867 24.3125 0 23.6428 0 22.9446V3.19892C0 2.50067 0.247867 1.83101 0.689072 1.33728C1.13028 0.843541 1.72868 0.566162 2.35264 0.566162L17.0566 0.566162C17.6806 0.566162 18.279 0.843541 18.7202 1.33728C19.1614 1.83101 19.4093 2.50067 19.4093 3.19892V26.2355C19.4093 26.9338 19.1614 27.6034 18.7202 28.0971C18.279 28.5909 17.6806 28.8683 17.0566 28.8683C13.7808 28.8683 10.6392 30.3245 8.32291 32.9166C6.00658 35.5087 4.70528 39.0244 4.70528 42.6902V53.2212H14.704V36.1083C14.704 35.4101 14.9519 34.7404 15.3931 34.2467C15.8343 33.753 16.4327 33.4756 17.0566 33.4756C20.3324 33.4756 23.474 32.0193 25.7904 29.4272C28.1067 26.8351 29.408 23.3194 29.408 19.6536V3.19892C29.408 2.50067 29.6559 1.83101 30.0971 1.33728C30.5383 0.843541 31.1367 0.566162 31.7606 0.566162L46.4646 0.566162C47.0886 0.566162 47.687 0.843541 48.1282 1.33728C48.5694 1.83101 48.8173 2.50067 48.8173 3.19892V55.854C48.8173 56.5522 48.5694 57.2219 48.1282 57.7156C47.687 58.2094 47.0886 58.4867 46.4646 58.4867Z" fill="white"/>
</svg>
