<svg width="70" height="74" viewBox="0 0 70 74" fill="none" xmlns="http://www.w3.org/2000/svg">
<path d="M69.7915 66.8464L59.9173 53.9829C61.9548 51.5398 63.6359 48.8208 64.9106 45.9069C66.6543 41.7872 67.5528 37.3598 67.5528 32.8868C67.5528 28.4139 66.6543 23.9865 64.9106 19.8668C63.2138 15.9536 60.7642 12.4116 57.7008 9.44195C54.6181 6.46807 50.9922 4.11363 47.0203 2.50666C42.8442 0.825015 38.3797 -0.0260393 33.8772 0.0012343H33.6755C29.1721 -0.0370234 24.7054 0.814435 20.5324 2.50666C16.5606 4.11363 12.9347 6.46807 9.85196 9.44195C6.78644 12.4098 4.33647 15.9522 2.64213 19.8668C0.89845 23.9865 0 28.4139 0 32.8868C0 37.3598 0.89845 41.7872 2.64213 45.9069C4.33906 49.8088 6.77157 53.3481 9.807 56.3317C12.0469 58.5196 14.5968 60.3662 17.3747 61.8124L24.2036 51.5874C22.3064 50.6507 20.5746 49.4116 19.076 47.9188C17.2171 46.049 15.7749 43.8076 14.8441 41.3417C13.828 38.6391 13.3194 35.7725 13.3439 32.8856C13.3021 30.0118 13.8113 27.1565 14.8441 24.4739C15.7836 22.0245 17.2162 19.7938 19.0534 17.9198C20.8905 16.0458 23.093 14.5685 25.5245 13.5792C30.8246 11.521 36.704 11.521 42.004 13.5792C44.4204 14.5736 46.6129 16.0417 48.4519 17.8968C50.3013 19.7742 51.7421 22.0135 52.6839 24.4739C54.6841 29.9189 54.6841 35.8967 52.6839 41.3417C51.764 43.8131 50.3204 46.0567 48.4519 47.9188C46.9533 49.4116 45.2215 50.6507 43.3243 51.5874L60.5201 73.9808L69.7915 66.8464Z" fill="white"/>
<path d="M69.7915 66.8464L59.9173 53.9829C61.9548 51.5398 63.6359 48.8208 64.9106 45.9069C66.6543 41.7872 67.5528 37.3598 67.5528 32.8868C67.5528 28.4139 66.6543 23.9865 64.9106 19.8668C63.2138 15.9536 60.7642 12.4116 57.7008 9.44195C54.6181 6.46807 50.9922 4.11363 47.0203 2.50666C42.8442 0.825015 38.3797 -0.0260393 33.8772 0.0012343H33.6755C29.1721 -0.0370234 24.7054 0.814435 20.5324 2.50666C16.5606 4.11363 12.9347 6.46807 9.85196 9.44195C6.78644 12.4098 4.33647 15.9522 2.64213 19.8668C0.89845 23.9865 0 28.4139 0 32.8868C0 37.3598 0.89845 41.7872 2.64213 45.9069C4.33906 49.8088 6.77157 53.3481 9.807 56.3317C12.0469 58.5196 14.5968 60.3662 17.3747 61.8124L24.2036 51.5874C22.3064 50.6507 20.5746 49.4116 19.076 47.9188C17.2171 46.049 15.7749 43.8076 14.8441 41.3417C13.828 38.6391 13.3194 35.7725 13.3439 32.8856C13.3021 30.0118 13.8113 27.1565 14.8441 24.4739C15.7836 22.0245 17.2162 19.7938 19.0534 17.9198C20.8905 16.0458 23.093 14.5685 25.5245 13.5792C30.8246 11.521 36.704 11.521 42.004 13.5792C44.4204 14.5736 46.6129 16.0417 48.4519 17.8968C50.3013 19.7742 51.7421 22.0135 52.6839 24.4739C54.6841 29.9189 54.6841 35.8967 52.6839 41.3417C51.764 43.8131 50.3204 46.0567 48.4519 47.9188C46.9533 49.4116 45.2215 50.6507 43.3243 51.5874L60.5201 73.9808L69.7915 66.8464Z" fill="white"/>
<path d="M33.6542 66.2631C37.636 66.2631 40.864 63.0379 40.864 59.0595C40.864 55.081 37.636 51.8558 33.6542 51.8558C29.6723 51.8558 26.4443 55.081 26.4443 59.0595C26.4443 63.0379 29.6723 66.2631 33.6542 66.2631Z" fill="#FA6400"/>
</svg>
