<svg width="86" height="78" viewBox="0 0 86 78" fill="none" xmlns="http://www.w3.org/2000/svg">
<path d="M27.4467 9.98872L7.90779 26.2069C5.48193 28.2204 4.37887 31.4143 5.04277 34.5024L12.4737 69.0678C13.4615 73.6622 17.9903 76.6032 22.5893 75.6367L66.6496 66.3771C71.2485 65.4106 74.176 60.9026 73.1883 56.3082L65.7573 21.7428C65.0934 18.6547 62.7718 16.1806 59.7273 15.3166L35.2058 8.35808C32.5029 7.59105 29.6004 8.20102 27.4467 9.98872Z" fill="#00E0FF" fill-opacity="0.8"/>
<path d="M50.785 8.38751L26.2819 15.3243C23.2397 16.1855 20.9217 18.6585 20.2613 21.7473L12.8694 56.3209C11.8869 60.9165 14.8177 65.4295 19.4156 66.4012L63.4654 75.7098C68.0633 76.6814 72.587 73.7437 73.5696 69.1481L80.9614 34.5745C81.6218 31.4857 80.5159 28.2892 78.0891 26.2722L58.5423 10.0268C56.3877 8.23608 53.4859 7.62287 50.785 8.38751Z" fill="#0038FF" fill-opacity="0.64"/>
<path d="M38.9529 2.08474L16.4306 13.9352C13.6345 15.4064 11.8838 18.3058 11.8838 21.4654V56.8012C11.8838 61.5006 15.6934 65.3102 20.3928 65.3102H65.4372C70.1366 65.3102 73.9462 61.5006 73.9462 56.8012V21.4654C73.9462 18.3058 72.1955 15.4064 69.3994 13.9352L46.8771 2.08474C44.3969 0.779724 41.4331 0.779724 38.9529 2.08474Z" fill="#0001AF" fill-opacity="0.72"/>
<path d="M36.9678 25.0931C38.9005 25.0931 40.5359 23.5451 40.5359 21.5548C40.5359 19.6382 38.9005 18.0165 36.9678 18.0165C34.9608 18.0165 33.3998 19.6382 33.3998 21.5548C33.3998 23.5451 34.9608 25.0931 36.9678 25.0931ZM33.3998 29.8108C33.3998 27.8942 31.7644 26.2725 29.8317 26.2725C27.8247 26.2725 26.2637 27.8942 26.2637 29.8108C26.2637 31.8011 27.8247 33.3491 29.8317 33.3491C31.7644 33.3491 33.3998 31.8011 33.3998 29.8108ZM48.8613 25.0931C50.794 25.0931 52.4294 23.5451 52.4294 21.5548C52.4294 19.6382 50.794 18.0165 48.8613 18.0165C46.8543 18.0165 45.2933 19.6382 45.2933 21.5548C45.2933 23.5451 46.8543 25.0931 48.8613 25.0931ZM55.9974 26.2725C53.9904 26.2725 52.4294 27.8942 52.4294 29.8108C52.4294 31.8011 53.9904 33.3491 55.9974 33.3491C57.9301 33.3491 59.5655 31.8011 59.5655 29.8108C59.5655 27.8942 57.9301 26.2725 55.9974 26.2725ZM53.5444 37.8457C51.6117 36.74 50.0507 33.3491 48.564 30.6217C47.3746 28.5577 45.1446 27.452 42.9146 27.452C40.6102 27.452 38.3802 28.5577 37.1908 30.6217C35.7041 33.3491 34.2174 36.74 32.2104 37.8457C30.0547 39.0989 28.6424 41.384 28.6424 43.964C28.6424 47.8709 31.7644 51.0406 35.7785 51.0406C39.5695 51.1881 41.1305 48.6818 42.9146 48.6818C44.6243 48.6818 46.1853 51.1881 50.0507 51.0406C53.9904 51.0406 57.1868 47.8709 57.1868 43.964C57.1868 41.384 55.7001 39.0989 53.5444 37.8457Z" fill="white"/>
</svg>
