<svg width="66" height="51" viewBox="0 0 66 51" fill="none" xmlns="http://www.w3.org/2000/svg">
<path fill-rule="evenodd" clip-rule="evenodd" d="M60.6785 7.46996C41.9099 42.3699 4.4175 56.5586 -30.4047 36.9108C-31.564 36.2566 -33.034 36.6656 -33.6883 37.8105C-34.3425 38.9759 -33.9336 40.4479 -32.7743 41.1022C4.55041 62.1812 44.8049 47.154 64.9229 9.75981C65.5526 8.59443 65.1131 7.12218 63.9416 6.48838C62.7701 5.87503 61.3082 6.30458 60.6785 7.46996Z" fill="#030303"/>
<path d="M-1.10123 21.943C2.77576 21.943 5.91875 18.8002 5.91875 14.9232C5.91875 11.0462 2.77576 7.90332 -1.10123 7.90332C-4.97822 7.90332 -8.12109 11.0462 -8.12109 14.9232C-8.12109 18.8002 -4.97822 21.943 -1.10123 21.943Z" fill="#030303"/>
<path d="M27.9608 14.4755C31.762 14.4755 34.8436 11.3941 34.8436 7.59287C34.8436 3.79165 31.762 0.710205 27.9608 0.710205C24.1596 0.710205 21.0781 3.79165 21.0781 7.59287C21.0781 11.3941 24.1596 14.4755 27.9608 14.4755Z" fill="#030303"/>
</svg>
